<?xml version="1.0" encoding="UTF-8"?>
<!DOCTYPE svg PUBLIC "-//W3C//DTD SVG 1.1//EN" "http://www.w3.org/Graphics/SVG/1.1/DTD/svg11.dtd">
<svg xmlns="http://www.w3.org/2000/svg" xml:space="preserve" width="472px" height="472px" version="1.1" style="shape-rendering:geometricPrecision; text-rendering:geometricPrecision; image-rendering:optimizeQuality; fill-rule:evenodd; clip-rule:evenodd" viewBox="0 0 312880 312880" xmlns:xlink="http://www.w3.org/1999/xlink">
  <path fill="#000" d="M160241 218077l0 -7136c0,-2004 -1639,-3653 -3654,-3653 -2006,0 -3642,1649 -3642,3653l0 7159c-31411,-1725 -56602,-26850 -58411,-58238l7340 0c2013,0 3642,-1640 3642,-3646 0,-2004 -1629,-3653 -3642,-3653l-7180 0c1638,-27075 20814,-49863 46932,-56287l-3008 7511c-560,1402 -205,3008 916,4042 1112,1035 2748,1251 4098,584l12955 -6488 12956 6475c519,260 1078,390 1638,390 895,0 1778,-322 2468,-961 1123,-1034 1479,-2651 919,-4042l-2955 -7392c25828,6594 44787,29308 46424,56168l-6725 0c-2006,0 -3643,1649 -3643,3653 0,2006 1637,3646 3643,3646l6887 0c-1799,31237 -26752,56287 -57958,58215zm-113600 -58174c1380,1251 3579,2329 5347,2329 2081,0 2682,-906 2682,-1940 0,-1079 -385,-1854 -2425,-1854l-2715 0 0 -4926 2243 0c1162,0 2251,-345 2251,-1724 0,-949 -429,-1770 -2328,-1770 -1217,0 -2941,304 -5271,1684l-2154 -4613c2069,-1424 4914,-2512 8968,-2512 4580,0 8200,2337 8200,6176 0,2759 -1420,4269 -2759,5000l0 89c1684,785 3449,2325 3449,4924 0,4700 -3921,7070 -9194,7070 -3276,0 -6855,-1119 -9269,-3276l2975 -4657zm217045 2759c1598,0 2374,-1075 2374,-2198 0,-1207 -724,-2242 -2329,-2242l-3320 0 0 4440 3275 0zm-472 -8795c1389,0 1982,-1045 1982,-2209 0,-1035 -593,-1940 -2070,-1940l-2715 0 0 4149 2803 0zm-10261 -8774l12113 0c4454,0 7558,1996 7558,5831 0,1854 -906,3838 -2588,4829l0 55c2544,764 3494,2975 3494,4904 0,4883 -4054,6608 -8464,6608l-12113 0 0 -22227zm-91355 122072c2630,0 4699,-2026 4699,-5345 0,-3376 -2069,-5486 -4699,-5486 -2629,0 -4711,2110 -4711,5486 0,3319 2082,5345 4711,5345zm-22268 -16536l7469 0 0 8031 3105 0c1295,-5215 5863,-8534 11653,-8534 6952,0 12299,4699 12299,11694 0,6942 -5347,11554 -12258,11554 -5949,0 -10615,-3405 -11779,-8795l-3020 0 0 8278 -7469 0 0 -22228zm19282 -205317c6803,0 11664,-2845 14929,-6219l-4666 -6629c-2533,2544 -6165,4559 -9840,4559 -7147,0 -10466,-5649 -10466,-11145 0,-5326 3060,-10564 10466,-10564 3320,0 6899,1714 9269,3783l4202 -6843c-3603,-3540 -8831,-5202 -13777,-5228l-183 0c-11398,32 -19357,8309 -19357,19067 0,10975 7513,19219 19423,19219zm-2025 33187l7641 19080 -6001 -2997c-1024,-505 -2244,-505 -3268,0l-6016 3008 7644 -19091zm76618 74064l-7859 0c-1746,-31959 -25438,-58898 -57031,-64416l-8345 -20834c-1109,-2782 -5657,-2770 -6769,0l-8298 20760c-31863,5337 -55761,32304 -57505,64490l-7417 0c-2015,0 -3644,1649 -3644,3653 0,2006 1629,3646 3644,3646l7254 0c1832,35397 30279,63801 65710,65536l0 7426c0,2006 1636,3653 3642,3653 2015,0 3654,-1636 3654,-3653l0 -7449c35215,-1950 63434,-30267 65266,-65513l7698 0c2004,0 3642,-1640 3642,-3646 0,-2004 -1638,-3653 -3642,-3653z"/>
</svg>
