<svg version="1.1" viewBox="0 0 60.6632 60.6632" xml:space="preserve" xmlns="http://www.w3.org/2000/svg"><defs><clipPath id="clipPath18"><path d="M 0,45.497 H 45.497 V 0 H 0 Z"/></clipPath></defs><g transform="matrix(1.3333 0 0 -1.3333 0 60.663)"><g clip-path="url(#clipPath18)"><g transform="translate(41.724 3.7734)"><path d="m0 0h-21.486l-0.046 13.369h7.308v5.673h-7.129v5.79c1e-3 0.972 0.387 1.903 1.072 2.59 0.685 0.686 1.614 1.073 2.582 1.074h3.909v5.148h-2.197c-2.906-3e-3 -6.147-0.251-8.202-2.312s-2.757-4.649-2.76-7.563v-4.727h-5.545v-5.673h5.545v-13.369h-11.003v37.951h37.952zm0 41.724h-41.725v-45.497h45.498v45.497z" fill="#0b0204"/></g></g></g></svg>
