<svg version="1.1" viewBox="0 0 18.757067 23.511868" xml:space="preserve" xmlns="http://www.w3.org/2000/svg"><defs><clipPath id="clipPath18"><path d="M 0,17.634 H 14.068 V 0 H 0 Z"/></clipPath></defs><g transform="matrix(1.3333 0 0 -1.3333 0 23.512)"><g clip-path="url(#clipPath18)"><g transform="translate(7.0339,6.9286)"><path d="m0 0c-2.03 0-3.677 1.646-3.677 3.677 0 2.03 1.647 3.677 3.677 3.677 2.031 0 3.677-1.647 3.677-3.677 0-2.031-1.646-3.677-3.677-3.677m0 10.705c-3.885 0-7.034-3.149-7.034-7.034 0-1.224 0.313-2.374 0.863-3.377l2e-3 -3e-3c1.256-2.628 6.169-7.22 6.169-7.22s4.913 4.592 6.169 7.22l2e-3 3e-3c0.55 1.003 0.863 2.153 0.863 3.377 0 3.885-3.149 7.034-7.034 7.034" fill="#f9a51a"/></g></g></g></svg>
