<svg version="1.1" viewBox="0 0 60.6632 60.6632" xml:space="preserve" xmlns="http://www.w3.org/2000/svg"><defs><clipPath id="clipPath18"><path d="M 0,45.497 H 45.497 V 0 H 0 Z"/></clipPath></defs><g transform="matrix(1.3333 0 0 -1.3333 0 60.663)"><g clip-path="url(#clipPath18)"><g transform="translate(17.508 24.92)"><path d="m0 0c0.429 1.036 1.156 1.922 2.089 2.545 0.933 0.624 2.03 0.956 3.152 0.956 1.504-1e-3 2.946-0.6 4.009-1.663 1.063-1.064 1.662-2.505 1.663-4.009 0-1.122-0.332-2.219-0.956-3.151-0.623-0.934-1.509-1.66-2.545-2.09-1.037-0.429-2.178-0.541-3.278-0.322-1.1 0.218-2.111 0.758-2.905 1.552-0.792 0.793-1.333 1.804-1.552 2.905-0.219 1.099-0.106 2.24 0.323 3.277m-1.062-11.604c1.866-1.247 4.059-1.912 6.303-1.912 3.008 3e-3 5.891 1.2 8.018 3.327 2.127 2.126 3.323 5.01 3.326 8.018 0 2.243-0.665 4.437-1.912 6.303-1.246 1.865-3.018 3.319-5.091 4.179-2.073 0.858-4.354 1.083-6.555 0.645-2.2-0.438-4.222-1.519-5.808-3.105-1.587-1.586-2.667-3.608-3.105-5.809-0.438-2.2-0.213-4.481 0.645-6.555 0.859-2.073 2.313-3.844 4.179-5.091" fill="#0b0204"/></g><g transform="translate(36.688 33.852)"><path d="m0 0c1.566 0 2.836 1.271 2.836 2.837s-1.27 2.836-2.836 2.836-2.836-1.27-2.836-2.836 1.27-2.837 2.836-2.837" fill="#0b0204"/></g><path d="m41.724 3.773h-37.951v37.951h37.951zm0 41.724h-41.724v-45.497h45.497v45.497z" fill="#0b0204"/></g></g></svg>
