<svg version="1.1" viewBox="0 0 44.418934 55.678665" xml:space="preserve" xmlns="http://www.w3.org/2000/svg"><defs><clipPath id="clipPath18"><path d="M 0,41.759 H 33.314 V 0 H 0 Z"/></clipPath></defs><g transform="matrix(1.3333 0 0 -1.3333 0 55.679)"><g clip-path="url(#clipPath18)"><g transform="translate(26.797 19.558)"><path d="m0 0-0.147-0.269-0.049-0.121c-1.483-2.974-6.014-8.048-9.944-12.035-3.929 3.987-8.46 9.061-9.943 12.035l-0.046 0.114-0.15 0.276c-0.939 1.711-1.415 3.577-1.415 5.544 0 6.371 5.183 11.554 11.554 11.554 6.372 0 11.555-5.183 11.555-11.554 0-1.967-0.476-3.833-1.415-5.544m-10.14 22.201c-9.199 0-16.657-7.458-16.657-16.657 0-2.899 0.742-5.624 2.044-7.998l3e-3 -7e-3c2.977-6.224 14.61-17.097 14.61-17.097s11.634 10.873 14.611 17.097l3e-3 7e-3c1.302 2.374 2.044 5.099 2.044 7.998 0 9.199-7.458 16.657-16.658 16.657" fill="#0a0203"/></g></g></g></svg>
