<svg version="1.1" viewBox="0 0 287.332 65.862129" xml:space="preserve" xmlns="http://www.w3.org/2000/svg"><defs><clipPath id="clipPath22"><path d="M 0,49.397 H 215.499 V 0 H 0 Z"/></clipPath></defs><g transform="matrix(1.3333 0 0 -1.3333 0 65.862)"><g transform="translate(8.1882 37.85)"><path d="m0 0-2.735-4.567-2.719 4.567h-2.734v-10.693h2.734v5.744l2.582-4.278h0.275l2.597 4.293v-5.759h2.719v10.693z" fill="#090103"/></g><g clip-path="url(#clipPath22)"><g transform="translate(22.373 29.601)"><path d="m0 0c-1.635 0-2.887 1.192-2.887 2.903s1.252 2.902 2.887 2.902 2.887-1.191 2.887-2.902-1.252-2.903-2.887-2.903m0 8.478c-3.116 0-5.606-2.428-5.606-5.575s2.49-5.576 5.606-5.576 5.606 2.429 5.606 5.576-2.49 5.575-5.606 5.575" fill="#090103"/></g><g transform="translate(42.134 37.85)"><path d="m0 0h-2.734v-6.921c0-0.763-0.382-1.344-1.497-1.344s-1.497 0.581-1.497 1.344v6.921h-2.735v-7.18c0-2.291 1.772-3.742 4.232-3.742s4.231 1.451 4.231 3.742z" fill="#090103"/></g><g transform="translate(54.181 32.473)"><path d="m0 0-3.773 5.377h-2.123v-10.693h2.734v5.377l3.773-5.377h2.108v10.693h-2.719z" fill="#090103"/></g><g transform="translate(79.591 34.687)"><path d="m0 0 1.085-3.636h-2.155zm1.787-5.988 0.458-1.543h2.949l-3.529 10.694h-3.33l-3.529-10.694h2.964l0.458 1.543z" fill="#090103"/></g><path d="m90.141 27.156h2.734v10.693h-2.734z" fill="#090103"/><g transform="translate(105.64 27.156)"><path d="m0 0h2.108v10.693h-2.719v-5.377l-3.774 5.377h-2.123v-10.693h2.735v5.377z" fill="#090103"/></g><g transform="translate(4.1551 14.637)"><path d="m0 0h-1.421v2.276h1.421c0.611 0 1.084-0.458 1.084-1.131 0-0.672-0.473-1.145-1.084-1.145m0 4.888h-4.155v-10.693h2.734v3.208h1.421c2.139 0 3.819 1.542 3.819 3.742s-1.68 3.743-3.819 3.743" fill="#090103"/></g><g transform="translate(15.837 12.727)"><path d="m0 0 1.069 3.636 1.085-3.636zm-0.596 6.799-3.529-10.694h2.964l0.458 1.543h3.56l0.458-1.543h2.948l-3.529 10.694z" fill="#090103"/></g><g transform="translate(31.703 14.606)"><path d="m0 0h-1.512v2.398h1.512c0.672 0 1.146-0.503 1.146-1.206 0-0.718-0.474-1.207-1.146-1.192m3.88 1.222c0 2.154-1.68 3.697-3.849 3.697h-4.277v-10.693h2.734v3.452h0.977l1.864-3.452h2.933l-2.199 3.956c1.099 0.611 1.817 1.726 1.817 3.04" fill="#090103"/></g><g transform="translate(50.212 19.525)"><path d="m0 0h-3.055l-2.918-4.491v4.491h-2.734v-10.694h2.734v4.782l3.071-4.782h3.055l-3.544 5.5z" fill="#090103"/></g><g transform="translate(65.058 49.397)"><path d="m0 0v-11.547h-2.572v-2.643h2.572v-8.05h2.877v8.05h2.571v2.643h-2.571v8.67h144.69v-43.643h-144.69v5.955h-2.877v-8.832h150.44v49.397z" fill="#090103"/></g></g></g></svg>
